<svg xmlns="http://www.w3.org/2000/svg" width="1257" height="336" viewBox="0 0 1257 336">
    <g fill="none" fill-rule="evenodd">
        <path fill="#FFFFFE" d="M69.264 286.693l37.24 21.71v-35.505L69.67 251.431l-.405 35.262"/>
        <path fill="#C52033" d="M107.875.68C59.863.68 27.63 32.557 27.63 79.96c0 32.438 17.307 60.318 35.623 89.81 9.242 14.848 18.642 29.978 26.346 46.36l18.277 39.784 18.607-42.59c8.718-18.559 21.093-33.426 29.73-47.225 17.105-27.272 31.874-50.833 31.874-87.87 0-44.222-34.495-77.55-80.21-77.55z"/>
        <path fill="#FFF" d="M124.336 210.48a303.467 303.467 0 0 0-2.177 4.72 239.708 239.708 0 0 0-4.117 9.524 301.389 301.389 0 0 0-9.36 26.103h-.362c-1.979-8.149-4.478-15.896-7.422-23.402v-.04a178.33 178.33 0 0 0-3.997-9.44 82.612 82.612 0 0 0-2.177-4.72c-23.319-49.1-60.881-86.544-60.881-132.577 0-40.872 26.787-73.067 74.032-73.067 42.89 0 74.036 30.463 74.036 71.33 0 53.015-31.471 76.536-57.575 131.569zm39.986 28.929v53.983l-52.049 29.898-52.326-29.898-.688-.401v-53.582l32.481-18.52a165.71 165.71 0 0 1 3.953 9.564l-20.82 12.265 36.876 21.3 36.998-21.3-25.54-14.967c1.332-3.31 2.702-6.54 4.117-9.603l36.998 21.26zm23.764-161.18c0-44.222-34.495-77.55-80.21-77.55-48.013 0-80.247 31.878-80.247 79.282 0 32.437 17.307 60.317 35.623 89.81 9.242 14.847 18.642 29.977 26.346 46.359l-36.39 20.78v60.598l59.065 33.768 58.1-33.366v-61l-40.912-23.482c8.718-18.559 18.114-33.53 26.752-47.329 17.104-27.272 31.873-50.833 31.873-87.87z"/>
        <path fill="#FFF" d="M108.805 21.821c-33.53 0-60.722 27.197-60.722 60.762 0 33.53 27.192 60.722 60.722 60.722 33.57 0 60.762-27.192 60.762-60.722 0-33.565-27.193-60.762-60.762-60.762z"/>
        <path fill="#232020" d="M108.884 136.042c-29.775 0-53.944-24.169-53.944-53.944 0-29.814 24.17-53.94 53.944-53.94 29.815 0 53.944 24.126 53.944 53.94 0 29.775-24.129 53.944-53.944 53.944z"/>
        <path fill="#FFFFFE" d="M131.158 88.757c-5.853 0-10.612-4.72-10.612-10.572 0-5.889 4.76-10.609 10.612-10.609 5.848 0 10.608 4.72 10.608 10.609 0 5.852-4.76 10.572-10.608 10.572zm-45.874.282c-5.853 0-10.613-4.76-10.613-10.612 0-5.848 4.76-10.608 10.613-10.608 5.848 0 10.608 4.76 10.608 10.608 0 5.853-4.76 10.612-10.608 10.612zm50.634-29.087H81.732c-5.042 0-9.604 2.054-12.91 5.364-3.349 3.349-5.407 7.906-5.407 12.952 0 10.084 8.272 18.317 18.317 18.317h54.186c5.042 0 9.603-2.059 12.948-5.368 3.31-3.35 5.368-7.907 5.368-12.949 0-10.088-8.228-18.316-18.316-18.316z"/>
        <path fill="#FFFFFE" d="M85.725 69.674a3.961 3.961 0 0 0-3.954 3.954 3.961 3.961 0 0 0 3.954 3.953 3.962 3.962 0 0 0 3.957-3.953 3.962 3.962 0 0 0-3.957-3.954M131.599 69.392a3.959 3.959 0 0 0-3.953 3.953c0 2.217 1.776 3.993 3.953 3.993 2.181 0 3.953-1.776 3.953-3.993a3.956 3.956 0 0 0-3.953-3.953"/>
        <g>
            <path fill="#FFF" d="M304.806 224.25v-71.075c0-3.652-.31-7.14-.914-10.45-.62-3.31-1.613-6.23-3.008-8.757-1.398-2.523-3.353-4.525-5.884-6.003-2.519-1.482-5.705-2.23-9.536-2.23-3.83 0-7.18.748-10.06 2.23a20.296 20.296 0 0 0-7.183 6.134c-1.92 2.61-3.35 5.618-4.311 9.015-.958 3.398-1.438 6.922-1.438 10.589v70.548h-43.113V94.12h41.543v18.034h.525c1.57-2.785 3.611-5.534 6.142-8.232 2.52-2.706 5.487-5.006 8.884-6.93 3.393-1.914 7.096-3.48 11.11-4.696 4-1.227 8.263-1.831 12.797-1.831 8.705 0 16.107 1.565 22.206 4.696 6.099 3.143 11.018 7.188 14.772 12.158 3.747 4.959 6.44 10.668 8.098 17.113 1.656 6.444 2.483 12.897 2.483 19.333v80.485h-43.113M374.309 224.25h42.85V94.122h-42.85v130.13zm45.985-171.672c0 3.305-.651 6.396-1.958 9.269-1.304 2.88-3.048 5.364-5.221 7.45-2.185 2.094-4.8 3.746-7.843 4.962a25.275 25.275 0 0 1-9.536 1.832c-6.969 0-12.802-2.309-17.506-6.925-4.708-4.61-7.056-10.144-7.056-16.588 0-3.143.608-6.15 1.832-9.016a21.203 21.203 0 0 1 5.224-7.453c2.261-2.09 4.875-3.79 7.835-5.094 2.96-1.303 6.183-1.959 9.671-1.959 3.31 0 6.488.612 9.536 1.832 3.043 1.216 5.658 2.869 7.843 4.962 2.173 2.09 3.917 4.574 5.22 7.442 1.308 2.88 1.96 5.972 1.96 9.286zM530.042 224.25v-71.075c0-3.652-.306-7.14-.918-10.454-.608-3.306-1.61-6.226-3.004-8.753-1.395-2.523-3.357-4.525-5.876-6.003-2.527-1.482-5.706-2.23-9.54-2.23-3.838 0-7.183.748-10.06 2.23a20.296 20.296 0 0 0-7.184 6.134c-1.919 2.61-3.357 5.618-4.314 9.015-.958 3.398-1.435 6.922-1.435 10.585v70.552h-43.117V94.12h41.548v18.034h.524c1.57-2.785 3.612-5.534 6.139-8.236 2.523-2.702 5.487-5.002 8.884-6.925 3.401-1.915 7.096-3.48 11.109-4.697 4-1.227 8.268-1.831 12.805-1.831 8.706 0 16.108 1.565 22.207 4.696 6.094 3.143 11.017 7.188 14.764 12.158 3.739 4.959 6.444 10.668 8.105 17.113 1.653 6.44 2.48 12.897 2.48 19.333v80.485h-43.117M646.325 52.574c0 3.31-.66 6.404-1.963 9.273-1.307 2.877-3.052 5.36-5.229 7.454-2.181 2.086-4.791 3.742-7.839 4.962a25.46 25.46 0 0 1-9.536 1.832c-6.972 0-12.805-2.313-17.51-6.93-4.7-4.612-7.056-10.147-7.056-16.591 0-3.135.616-6.143 1.832-9.016a21.535 21.535 0 0 1 5.225-7.45c2.264-2.09 4.87-3.79 7.839-5.093 2.964-1.303 6.186-1.963 9.67-1.963 3.31 0 6.48.616 9.536 1.836 3.048 1.22 5.658 2.869 7.84 4.962 2.176 2.09 3.92 4.574 5.228 7.446 1.303 2.877 1.963 5.968 1.963 9.278m-3.135 175.074c0 8.006-.751 15.63-2.225 22.862-1.486 7.23-4.14 13.548-7.97 18.944-3.835 5.4-9.147 9.67-15.937 12.801-6.794 3.143-15.424 4.709-25.873 4.709-2.964 0-6.186-.18-9.667-.525-3.48-.35-6.44-.87-8.884-1.561l2.877-35.803c1.565.525 3.174.87 4.827 1.041 1.66.171 3.087.262 4.315.262 6.274 0 10.453-2.13 12.54-6.4 2.09-4.272 3.134-9.715 3.134-16.33V94.12h42.863v133.527M747.438 167.546h-5.487c-4.7 0-9.448.222-14.236.655-4.8.437-9.063 1.26-12.805 2.483-3.747 1.224-6.838 3.004-9.278 5.356-2.443 2.348-3.655 5.447-3.655 9.274 0 2.447.56 4.53 1.697 6.277a13.268 13.268 0 0 0 4.306 4.18c1.745 1.041 3.747 1.784 6.016 2.213 2.26.441 4.438.656 6.536.656 8.701 0 15.368-2.388 19.977-7.184 4.62-4.791 6.93-11.28 6.93-19.468v-4.442zm-78.645-55.657c7.656-7.314 16.588-12.801 26.783-16.46 10.187-3.66 20.59-5.488 31.217-5.488 10.986 0 20.26 1.347 27.84 4.05 7.57 2.7 13.712 6.88 18.416 12.538 4.705 5.666 8.141 12.81 10.323 21.436 2.173 8.618 3.266 18.852 3.266 30.697v65.593h-39.2v-13.85h-.787c-3.305 5.395-8.32 9.575-15.014 12.539-6.71 2.96-13.986 4.442-21.825 4.442-5.225 0-10.624-.696-16.203-2.086-5.57-1.39-10.668-3.66-15.28-6.802-4.617-3.135-8.408-7.315-11.368-12.544-2.964-5.22-4.442-11.665-4.442-19.333 0-9.409 2.563-16.982 7.704-22.73 5.134-5.75 11.76-10.192 19.866-13.327 8.098-3.139 17.117-5.229 27.042-6.27 9.933-1.048 19.6-1.569 29-1.569v-2.086c0-6.448-2.26-11.196-6.79-14.244-4.53-3.051-10.108-4.577-16.723-4.577-6.103 0-11.98 1.311-17.641 3.918-5.666 2.614-10.501 5.749-14.502 9.408l-21.682-23.255z"/>
            <path fill="#FFFFFE" d="M902.134 224.847h-46.57l-51.591-131.08h47.634l27.641 85.01h.791l27.626-85.01h46.065l-51.596 131.08M1041.112 167.732h-5.527c-4.736 0-9.52.215-14.339.648-4.827.445-9.13 1.287-12.897 2.503-3.79 1.232-6.878 3.028-9.353 5.404-2.451 2.364-3.69 5.483-3.687 9.34 0 2.456.576 4.566 1.708 6.322a13.475 13.475 0 0 0 4.36 4.207c1.743 1.057 3.762 1.8 6.05 2.233 2.277.441 4.458.66 6.58.66 8.773 0 15.475-2.408 20.124-7.235 4.657-4.824 6.98-11.356 6.98-19.616v-4.466zm-79.225-56.065c7.708-7.37 16.715-12.897 26.99-16.588 10.25-3.675 20.74-5.527 31.455-5.527 11.046 0 20.394 1.355 28.015 4.08 7.648 2.718 13.823 6.93 18.547 12.64 4.752 5.705 8.224 12.892 10.41 21.574 2.189 8.685 3.285 18.995 3.285 30.939v66.062h-39.477v-13.954h-.79c-3.334 5.447-8.376 9.655-15.13 12.643-6.767 2.964-14.078 4.473-21.972 4.473-5.28 0-10.716-.703-16.318-2.121-5.618-1.395-10.768-3.671-15.4-6.842-4.657-3.15-8.475-7.366-11.451-12.619-2.996-5.268-4.482-11.757-4.482-19.48 0-9.472 2.595-17.117 7.772-22.91 5.165-5.785 11.84-10.255 19.997-13.413 8.157-3.167 17.247-5.269 27.248-6.318 10-1.06 19.735-1.585 29.215-1.585v-2.106c0-6.48-2.285-11.264-6.854-14.343-4.565-3.06-10.167-4.597-16.834-4.597-6.155 0-12.067 1.311-17.776 3.946-5.702 2.626-10.565 5.777-14.606 9.472l-21.844-23.426zM1192.196 224.847v-71.593c0-3.683-.314-7.191-.922-10.533-.612-3.33-1.62-6.266-3.023-8.804-1.403-2.543-3.381-4.566-5.924-6.071-2.54-1.478-5.75-2.225-9.596-2.225-3.873 0-7.247.747-10.143 2.225-2.897 1.505-5.308 3.556-7.247 6.198-1.927 2.626-3.381 5.65-4.33 9.07-.97 3.417-1.451 6.977-1.451 10.668v71.065h-43.435V93.764h41.854v18.169h.524c1.581-2.801 3.643-5.566 6.186-8.296 2.543-2.718 5.523-5.046 8.932-6.977 3.437-1.93 7.156-3.504 11.192-4.728 4.05-1.224 8.336-1.852 12.91-1.852 8.772 0 16.222 1.578 22.38 4.74 6.127 3.16 11.093 7.236 14.86 12.238 3.782 4.998 6.488 10.747 8.173 17.236 1.66 6.5 2.499 12.996 2.499 19.48v81.073h-43.439"/>
        </g>
    </g>
</svg>
